<svg xmlns="http://www.w3.org/2000/svg" width="25" height="25" viewBox="0 0 25 25" fill="none">
  <path d="M17.4852 9.0614H7.48522C7.22 9.0614 6.96565 9.16676 6.77811 9.35429C6.59057 9.54183 6.48522 9.79619 6.48522 10.0614C6.48522 10.3266 6.59057 10.581 6.77811 10.7685C6.96565 10.956 7.22 11.0614 7.48522 11.0614H17.4852C17.7504 11.0614 18.0048 10.956 18.1923 10.7685C18.3799 10.581 18.4852 10.3266 18.4852 10.0614C18.4852 9.79619 18.3799 9.54183 18.1923 9.35429C18.0048 9.16676 17.7504 9.0614 17.4852 9.0614ZM13.4852 13.0614H7.48522C7.22 13.0614 6.96565 13.1668 6.77811 13.3543C6.59057 13.5418 6.48522 13.7962 6.48522 14.0614C6.48522 14.3266 6.59057 14.581 6.77811 14.7685C6.96565 14.956 7.22 15.0614 7.48522 15.0614H13.4852C13.7504 15.0614 14.0048 14.956 14.1923 14.7685C14.3799 14.581 14.4852 14.3266 14.4852 14.0614C14.4852 13.7962 14.3799 13.5418 14.1923 13.3543C14.0048 13.1668 13.7504 13.0614 13.4852 13.0614ZM12.4852 2.0614C11.172 2.0614 9.87164 2.32006 8.65838 2.82261C7.44513 3.32515 6.34274 4.06175 5.41415 4.99033C3.53879 6.8657 2.48522 9.40924 2.48522 12.0614C2.47648 14.3705 3.27601 16.6099 4.74522 18.3914L2.74522 20.3914C2.60646 20.532 2.51246 20.7106 2.47509 20.9046C2.43772 21.0986 2.45864 21.2993 2.53522 21.4814C2.61828 21.6613 2.75292 21.8125 2.92206 21.9158C3.09121 22.0191 3.28722 22.0697 3.48522 22.0614H12.4852C15.1374 22.0614 17.6809 21.0078 19.5563 19.1325C21.4317 17.2571 22.4852 14.7136 22.4852 12.0614C22.4852 9.40924 21.4317 6.8657 19.5563 4.99033C17.6809 3.11497 15.1374 2.0614 12.4852 2.0614ZM12.4852 20.0614H5.89522L6.82522 19.1314C7.01147 18.944 7.11601 18.6906 7.11601 18.4264C7.11601 18.1622 7.01147 17.9088 6.82522 17.7214C5.5158 16.4134 4.70039 14.6919 4.51791 12.8502C4.33543 11.0085 4.79716 9.16041 5.82444 7.62092C6.85173 6.08144 8.38101 4.94576 10.1517 4.40737C11.9225 3.86899 13.8251 3.96121 15.5354 4.66831C17.2458 5.37542 18.6581 6.65368 19.5317 8.28529C20.4052 9.91691 20.6861 11.8009 20.3263 13.6164C19.9666 15.4319 18.9885 17.0664 17.5588 18.2416C16.129 19.4168 14.336 20.0599 12.4852 20.0614Z" fill="white"/>
</svg>