<svg xmlns="http://www.w3.org/2000/svg" width="24" height="25" viewBox="0 0 24 25" fill="none">
  <path d="M20.0001 8.44971L14.0001 3.18971C13.4501 2.69776 12.738 2.42578 12.0001 2.42578C11.2622 2.42578 10.5501 2.69776 10.0001 3.18971L4.00009 8.44971C3.68246 8.73379 3.42899 9.08227 3.25657 9.47196C3.08414 9.86165 2.99671 10.2836 3.00009 10.7097V19.4497C3.00009 20.2454 3.31617 21.0084 3.87877 21.571C4.44138 22.1336 5.20445 22.4497 6.00009 22.4497H18.0001C18.7957 22.4497 19.5588 22.1336 20.1214 21.571C20.684 21.0084 21.0001 20.2454 21.0001 19.4497V10.6997C21.0021 10.2753 20.9139 9.85525 20.7416 9.46739C20.5692 9.07954 20.3165 8.73267 20.0001 8.44971ZM14.0001 20.4497H10.0001V15.4497C10.0001 15.1845 10.1055 14.9301 10.293 14.7426C10.4805 14.5551 10.7349 14.4497 11.0001 14.4497H13.0001C13.2653 14.4497 13.5197 14.5551 13.7072 14.7426C13.8947 14.9301 14.0001 15.1845 14.0001 15.4497V20.4497ZM19.0001 19.4497C19.0001 19.7149 18.8947 19.9693 18.7072 20.1568C18.5197 20.3444 18.2653 20.4497 18.0001 20.4497H16.0001V15.4497C16.0001 14.6541 15.684 13.891 15.1214 13.3284C14.5588 12.7658 13.7957 12.4497 13.0001 12.4497H11.0001C10.2044 12.4497 9.44138 12.7658 8.87877 13.3284C8.31616 13.891 8.00009 14.6541 8.00009 15.4497V20.4497H6.00009C5.73488 20.4497 5.48052 20.3444 5.29299 20.1568C5.10545 19.9693 5.00009 19.7149 5.00009 19.4497V10.6997C5.00027 10.5577 5.03069 10.4174 5.08931 10.2881C5.14794 10.1588 5.23343 10.0434 5.3401 9.94971L11.3401 4.69971C11.5226 4.53939 11.7572 4.45098 12.0001 4.45098C12.243 4.45098 12.4776 4.53939 12.6601 4.69971L18.6601 9.94971C18.7668 10.0434 18.8523 10.1588 18.9109 10.2881C18.9695 10.4174 18.9999 10.5577 19.0001 10.6997V19.4497Z" fill="#16A34A"/>
</svg>