<svg xmlns="http://www.w3.org/2000/svg" width="24" height="25" viewBox="0 0 24 25" fill="none">
  <path d="M20.1603 5.37895C19.1002 4.31616 17.6951 3.66749 16.1986 3.55012C14.7021 3.43275 13.213 3.85442 12.0003 4.73895C10.7279 3.79259 9.14427 3.36346 7.5682 3.53799C5.99212 3.71251 4.54072 4.47773 3.50625 5.67953C2.47178 6.88134 1.9311 8.43047 1.99308 10.015C2.05506 11.5995 2.71509 13.1016 3.84028 14.2189L10.0503 20.4389C10.5703 20.9507 11.2707 21.2376 12.0003 21.2376C12.7299 21.2376 13.4303 20.9507 13.9503 20.4389L20.1603 14.2189C21.3279 13.0442 21.9832 11.4552 21.9832 9.79895C21.9832 8.14268 21.3279 6.55368 20.1603 5.37895ZM18.7503 12.8389L12.5403 19.0489C12.4696 19.1203 12.3855 19.1769 12.2928 19.2156C12.2001 19.2543 12.1007 19.2742 12.0003 19.2742C11.8999 19.2742 11.8004 19.2543 11.7077 19.2156C11.615 19.1769 11.5309 19.1203 11.4603 19.0489L5.25028 12.8089C4.46603 12.0073 4.02689 10.9304 4.02689 9.80895C4.02689 8.68748 4.46603 7.6106 5.25028 6.80895C6.04943 6.01994 7.12725 5.57752 8.25028 5.57752C9.3733 5.57752 10.4511 6.01994 11.2503 6.80895C11.3432 6.90268 11.4538 6.97707 11.5757 7.02784C11.6976 7.07861 11.8283 7.10475 11.9603 7.10475C12.0923 7.10475 12.223 7.07861 12.3449 7.02784C12.4667 6.97707 12.5773 6.90268 12.6703 6.80895C13.4694 6.01994 14.5472 5.57752 15.6703 5.57752C16.7933 5.57752 17.8711 6.01994 18.6703 6.80895C19.4653 7.6001 19.9189 8.67114 19.9338 9.79264C19.9488 10.9141 19.5239 11.9969 18.7503 12.8089V12.8389Z" fill="#16A34A"/>
</svg>
