<svg xmlns="http://www.w3.org/2000/svg" width="25" height="25" viewBox="0 0 25 25" fill="none">
  <path d="M16.1949 13.0889C17.1753 12.3176 17.8909 11.2598 18.2421 10.0629C18.5933 8.86587 18.5628 7.58917 18.1546 6.41038C17.7465 5.23158 16.9811 4.2093 15.9649 3.48576C14.9487 2.76223 13.7323 2.37341 12.4849 2.37341C11.2374 2.37341 10.021 2.76223 9.00479 3.48576C7.98861 4.2093 7.2232 5.23158 6.81507 6.41038C6.40694 7.58917 6.37637 8.86587 6.72762 10.0629C7.07887 11.2598 7.79447 12.3176 8.77486 13.0889C7.09494 13.762 5.62915 14.8783 4.53375 16.3188C3.43836 17.7594 2.75442 19.4702 2.55486 21.2689C2.54041 21.4002 2.55198 21.5331 2.58889 21.66C2.62579 21.7868 2.68733 21.9052 2.76997 22.0082C2.93688 22.2164 3.17964 22.3497 3.44486 22.3789C3.71008 22.4081 3.97602 22.3307 4.18419 22.1638C4.39235 21.9969 4.52569 21.7541 4.55486 21.4889C4.77444 19.5341 5.70655 17.7287 7.17308 16.4177C8.63961 15.1067 10.5378 14.3819 12.5049 14.3819C14.472 14.3819 16.3701 15.1067 17.8366 16.4177C19.3032 17.7287 20.2353 19.5341 20.4549 21.4889C20.482 21.7346 20.5993 21.9616 20.784 22.1259C20.9686 22.2903 21.2076 22.3804 21.4549 22.3789H21.5649C21.827 22.3487 22.0666 22.2162 22.2314 22.0102C22.3963 21.8041 22.473 21.5413 22.4449 21.2789C22.2444 19.4751 21.5567 17.7599 20.4557 16.3171C19.3547 14.8743 17.8818 13.7584 16.1949 13.0889ZM12.4849 12.3789C11.6937 12.3789 10.9204 12.1443 10.2626 11.7048C9.60478 11.2653 9.09209 10.6405 8.78934 9.90964C8.48659 9.17874 8.40738 8.37447 8.56172 7.59855C8.71606 6.82262 9.09702 6.10989 9.65643 5.55048C10.2158 4.99107 10.9286 4.61011 11.7045 4.45577C12.4804 4.30143 13.2847 4.38064 14.0156 4.68339C14.7465 4.98614 15.3712 5.49883 15.8107 6.15663C16.2503 6.81442 16.4849 7.58778 16.4849 8.37891C16.4849 9.43977 16.0634 10.4572 15.3133 11.2073C14.5631 11.9575 13.5457 12.3789 12.4849 12.3789Z" fill="white"/>
</svg>