<svg xmlns="http://www.w3.org/2000/svg" width="26" height="25" viewBox="0 0 26 25" fill="none">
  <path d="M25.2819 12.7781C25.2819 11.9274 25.2111 11.0767 25.0694 10.2434H13.041V15.0523H19.9321C19.6486 16.5974 18.7275 17.9862 17.3811 18.8543V21.9792H21.491C23.9002 19.8091 25.2819 16.5974 25.2819 12.7781Z" fill="#4285F4"/>
  <path d="M13.041 24.9998C16.4777 24.9998 19.3829 23.8887 21.491 21.9791L17.3811 18.8542C16.2297 19.618 14.7593 20.0521 13.041 20.0521C9.71063 20.0521 6.89397 17.8473 5.88423 14.896H1.65039V18.125C3.8116 22.3263 8.22258 24.9998 13.041 24.9998Z" fill="#34A853"/>
  <path d="M5.88354 14.8961C5.3521 13.3511 5.3521 11.6671 5.88354 10.1046V6.89291H1.6497C0.750087 8.63065 0.28125 10.5518 0.28125 12.5004C0.28125 14.449 0.750087 16.3701 1.6497 18.1079L5.88354 14.8961Z" fill="#FBBC04"/>
  <path d="M13.041 4.94852C14.8656 4.9138 16.6194 5.59086 17.9303 6.82347L21.5618 3.26455C19.2589 1.12919 16.212 -0.0339657 13.041 0.000755497C8.22258 0.000755497 3.8116 2.67429 1.65039 6.89291L5.88423 10.122C6.89397 7.15332 9.71063 4.94852 13.041 4.94852Z" fill="#EA4335"/>
</svg>